<?xml version="1.0" encoding="utf-8"?>
<!-- Generator: Adobe Illustrator 27.8.1, SVG Export Plug-In . SVG Version: 6.00 Build 0)  -->
<svg version="1.1" id="Layer_1" xmlns="http://www.w3.org/2000/svg" xmlns:xlink="http://www.w3.org/1999/xlink" x="0px" y="0px"
	 viewBox="0 0 484 169" style="enable-background:new 0 0 484 169;" xml:space="preserve">
<style type="text/css">
	.st0{fill:#FFFFFF;}
	.st1{fill-rule:evenodd;clip-rule:evenodd;}
</style>
<path class="st0" d="M122.8,28.4c0-7.5-3-14.7-8.3-20.1C109.1,3,101.9,0,94.4,0H60L0.6,127.1h74.8v18.2c0,17-9.7,23.7-9.7,23.7h66.7
	c0,0-9.7-6.6-9.7-23.7v-17.8c17.3,1.4,21.3,5,21.3,5V103h-21.3V28.4z M75.4,103H42.8l32.7-70.1V103z"/>
<path d="M255.1,96.1c-0.1,0.4-0.4,0.8-1.1,1.1c-0.5,0.2-1,0.4-1.5,0.4c-0.4,0-0.9-0.1-1.4-0.1c-0.5-0.1-1.1-0.2-1.7-0.2
	c-0.2,0-0.5,0-0.8,0c-2.1,0.3-13.4,5.3-14.7,5.9c0,0-1.6,0.8-3.7,1.8c0.9,0.4,1.6,0.8,2.3,1.1c0.5,0.3,1.3,0.7,2.1,1
	c5.3,2.7,9.5,4.8,11,4.8c0.7,0,1.3,0,1.8-0.1c0.5,0,1.1-0.1,1.5-0.1s0.9,0,1.1,0.1c0.8,0.2,1.8,1.3,1.8,2.6c0,0.4-0.5,0.5-1.5,0.8
	c-0.5,0.1-1.1,0.2-1.4,0.5c-0.5,0.4-0.4,1.1-0.3,1.6c0,0.5,0.1,0.8-0.1,1c-0.2,0.2-1.1,0.4-2.2,0.4c-0.7,0-1.3-0.1-1.6-0.3
	c-0.3-0.2-0.7-0.9-1.1-1.5c-0.5-0.9-1.1-2-2-2.6c-1.1-0.9-6.4-3.4-12.3-6.1c-1.2-0.5-2.3-1.1-3-1.4c-3.4,1.6-6.7,3.3-7.6,3.7
	c-0.5,0.2-1.2,0.5-1.8,0.8c-1.7,0.7-3.5,1.4-4.1,2.4c-0.4,0.5-0.8,1.2-1.2,1.7c-0.4,0.7-0.9,1.3-1.1,1.5c-0.3,0.3-1.1,1-1.7,1
	c-0.1,0-0.2,0-0.3,0c-1-0.3-2-0.9-2.3-1.2c0,0,0.1-0.1,0.2-0.2c0.2-0.3,1-1.1,0.1-1.8c-0.3-0.3-0.8-0.4-1.3-0.5
	c-0.8-0.2-1.2-0.4-1.2-0.7c0-0.2,0-0.4,0-0.7c0-1.1,0-1.7,0.9-2.3c0.7-0.3,1.5-0.4,2.5-0.4c0.2,0,0.4,0,0.8,0c0.2,0,0.5,0,0.9,0
	c0.7,0,1.2,0,1.7-0.1c1.3-0.1,6.7-2.8,11.5-5.2c-2-1-4.1-2-5.5-2.6l-1.3-0.7c-0.3-0.1-0.7-0.3-1.1-0.5c-3.2-1.5-6.1-2.8-7.4-2.8
	c-0.7,0-1.3,0.1-2.1,0.2c-0.8,0.1-1.5,0.3-2.2,0.3c-0.4,0-0.8-0.1-1-0.2c-1-0.5-1.3-1.7-1.1-3.2c0.1-0.8-0.2-1.6-0.4-2.4
	c-0.3-0.8-0.5-1.5-0.4-2.3c0.1-1,2.5-1.6,3.7-1.6c1.4,0,3.2,0.4,3.6,1.1c0.7,1,1.7,3.2,1.7,3.2l0.1,0.1l0.1,0.1c0,0,1.5,1,2.9,1.8
	c1.5,1,4,2.3,7.1,3.9c1.5,0.9,4.2,2.1,7.1,3.4c0.1,0,0.1,0,0.2,0.1c1.8-1,3.2-1.6,3.6-2c2.6-1.2,14.3-6.4,14.5-6.5
	c0.2-0.1,2.3-1.1,3-2.1c0.3-0.4,0.4-1,0.7-1.5c0.3-1,0.7-2,1.4-2.3c0.9-0.4,2.1-0.7,3-0.7c0.9,0,1.5,0.2,1.8,0.5
	c1,0.9,0.9,2,0.4,2.6c-0.7,1.1-0.7,2.3,0.1,3.5C255,95.2,255.2,95.7,255.1,96.1z M240.1,72.5c1.3-1.3,2.3-3.9,2-5.1
	c-0.3-1.1-0.7-1.8-1.7-2.1c-1.4-0.3-11.4,1-11.8,2.1c-0.7,2,3.2,5.1,5.9,6.2C236.3,74.3,239.1,73.5,240.1,72.5z M227.7,73.8
	c-0.1-0.2-0.4-0.4-0.7-0.5c-0.1,0-1,0-1.1,0c-0.2,0.1-0.5,0.3-0.7,0.5c-0.5,0.7-1.2,2.2-1.4,2.9c-0.2,0.5-0.8,1.8-0.7,2.4
	c0.2,0.7,1.2,1.5,1.8,1.8c0.3,0.1,2.7,0.1,3,0c0.5-0.2,1.6-1.2,1.8-1.8c0.1-0.7-0.4-1.8-0.7-2.4C228.9,76,228.2,74.4,227.7,73.8z
	 M218.8,73.6c2.7-1.1,6.4-4.2,5.9-6.2c-0.3-1.2-10.3-2.5-11.8-2.1c-1.1,0.2-1.4,1-1.7,2.1c-0.3,1.2,0.7,3.8,2,5.1
	C214.1,73.5,216.9,74.3,218.8,73.6z M243.3,71.7c0,0,2.2,1.5,2.5,2.5c0.3,1.2-1.3,4-1.6,4.5c-0.2,0.3-2.2,2.6-3.4,2.5
	c-0.8-0.1-3.4-1.3-3.9-1.2c-0.7,0-1,7.6-1.8,8.5s-6.3,1.2-8.5,1.2c-2.2,0-7.6-0.3-8.5-1.2c-0.9-0.9-1.2-8.5-1.8-8.5
	c-0.5,0-3.2,1.1-3.9,1.2c-1.2,0.1-3.2-2.2-3.4-2.5c-0.3-0.5-2-3.4-1.6-4.5c0.3-1,2.5-2.5,2.5-2.5s-2.1-10.1-2-12.9
	c0.1-2.8,1-5.3,2.8-8.3c1.6-2.7,3.7-4.8,6.5-6.1c1.8-0.9,5.2-1.8,9.5-1.8c4.2-0.1,7.5,1,9.5,1.8c2.8,1.3,4.9,3.4,6.5,6.1
	c1.8,2.9,2.7,5.4,2.8,8.3C245.4,61.5,243.3,71.7,243.3,71.7z"/>
<path class="st0" d="M338.7,53.6c-2.8-13.6-12.1-30.3-29.1-32.9c-2.3-0.4-4.4-0.5-6.4-0.5c-8.6,0.1-14.6,3.2-17.4,5.1
	c-0.3-0.9-0.8-2.1-0.8-4c0-0.5,0.1-0.9,0.2-1.2c0.4-1.1,1.2-2,2.4-3.1c1.6-1.5,3.6-3.4,3.6-6.5c0-0.6-0.1-1.2-0.3-1.7c0,0,0,0,0,0
	c0-0.2-0.1-0.3-0.2-0.4c0,0,0-0.1,0-0.1c-0.1-0.1-0.1-0.3-0.2-0.4c0,0,0-0.1-0.1-0.1c-0.1-0.1-0.1-0.2-0.2-0.3c0,0-0.1-0.1-0.1-0.1
	c-0.1-0.1-0.1-0.2-0.2-0.3c0,0-0.1-0.1-0.1-0.1c-0.1-0.1-0.2-0.2-0.2-0.3c0,0-0.1-0.1-0.1-0.1c-0.1-0.1-0.2-0.2-0.3-0.2
	c-0.1,0-0.1-0.1-0.2-0.1c-0.1-0.1-0.2-0.2-0.3-0.2c-0.1,0-0.1-0.1-0.2-0.1c-0.1-0.1-0.2-0.1-0.3-0.2c-0.1,0-0.1-0.1-0.2-0.1
	C288,5,287.9,5,287.8,4.9c-0.1,0-0.1-0.1-0.2-0.1c-0.1-0.1-0.2-0.1-0.3-0.2c-0.1,0-0.2-0.1-0.2-0.1c-0.1-0.1-0.2-0.1-0.3-0.2
	c-0.1,0-0.2-0.1-0.2-0.1c-0.1-0.1-0.2-0.1-0.3-0.1c-0.1,0-0.2-0.1-0.2-0.1c-0.1,0-0.2-0.1-0.3-0.1c-0.1,0-0.2-0.1-0.3-0.1
	c-0.1,0-0.2-0.1-0.3-0.1c-0.1,0-0.2-0.1-0.3-0.1c-0.1,0-0.2-0.1-0.3-0.1c-0.1,0-0.2-0.1-0.3-0.1c-0.1,0-0.2-0.1-0.3-0.1
	c-0.1,0-0.2-0.1-0.3-0.1c-0.1,0-0.2-0.1-0.3-0.1c-0.1,0-0.2-0.1-0.3-0.1c-0.1,0-0.2-0.1-0.3-0.1c-0.1,0-0.2,0-0.3-0.1
	c-0.1,0-0.2-0.1-0.3-0.1c-0.1,0-0.2,0-0.3-0.1c-0.1,0-0.2,0-0.3-0.1c-0.1,0-0.2,0-0.3-0.1c-0.1,0-0.2,0-0.3-0.1
	c-0.1,0-0.2,0-0.3-0.1c-0.1,0-0.2,0-0.3-0.1c-0.1,0-0.2,0-0.3,0c-0.1,0-0.2,0-0.3-0.1c-0.1,0-0.2,0-0.3,0c-0.1,0-0.2,0-0.3,0
	c-0.1,0-0.2,0-0.2,0c-0.1,0-0.2,0-0.3,0c-0.1,0-0.2,0-0.3,0c-0.1,0-0.2,0-0.3,0c-0.1,0-0.2,0-0.2,0c-0.1,0-0.2,0-0.3,0
	c-0.1,0-0.1,0-0.2,0c-0.1,0-0.2,0-0.3,0c0,0-0.1,0-0.1,0c-0.2,0-0.4,0-0.5-0.1c-4.9-0.5-12.8-1-13.2-1C253.8,0.2,244.2,0,234.9,0
	c-33.3,0-63.8,2.7-68.8,3.7c-2.9,0.5-5.3,2.2-6.5,4.5c-1,2.1-1.2,4.5-0.3,6.3c0.2,0.3,0.3,0.6,0.6,0.9c0.1,0.1,0.2,0.2,0.2,0.3
	c0.1,0.2,0.3,0.4,0.5,0.5c0.1,0.1,0.2,0.2,0.3,0.3c0.2,0.1,0.3,0.3,0.5,0.4c0.2,0.1,0.3,0.2,0.5,0.4c0.1,0,0.1,0.1,0.2,0.1
	c0.1,0.1,0.2,0.1,0.3,0.2c1.3,1,2.4,1.8,2.7,3.2c0.1,0.3,0.1,0.5,0.1,0.7c0,0.1,0,0.2,0,0.3c0,0.1,0,0.3,0,0.4c0,0.1,0,0.2,0,0.3
	c0,0.1,0,0.2,0,0.3c0,0.1,0,0.2,0,0.3c0,0.1,0,0.2-0.1,0.3c0,0.1,0,0.2-0.1,0.2c0,0.1,0,0.2-0.1,0.2c0,0.1-0.1,0.1-0.1,0.2
	c0,0.1-0.1,0.1-0.1,0.2c0,0.1-0.1,0.1-0.1,0.2c0,0.1,0,0.1-0.1,0.1c0,0.1-0.1,0.1-0.1,0.2c0,0,0,0.1,0,0.1l-0.8,0.8
	c-0.2,0.2-0.4,0.4-0.5,0.6c0,0.1-0.1,0.1-0.1,0.2c-0.1,0.1-0.2,0.3-0.3,0.4c0,0.1-0.1,0.1-0.1,0.2c-0.1,0.1-0.1,0.2-0.1,0.3
	c0,0.1-0.1,0.1-0.1,0.2c0,0,0,0,0,0.1c0,0,0,0,0,0.1l-0.1,0.4c-0.1,0.3-0.1,0.7-0.1,1c0,0.1,0,0.2,0,0.3c0,0.2,0,0.5,0,0.7
	c0,0.1,0,0.3,0.1,0.4c0,0.2,0.1,0.5,0.1,0.7c0,0.2,0.1,0.3,0.1,0.5c0.1,0.2,0.1,0.5,0.2,0.7c0,0.2,0.1,0.3,0.2,0.5
	c0.1,0.3,0.2,0.5,0.3,0.8c0.1,0.2,0.1,0.4,0.2,0.5c0.1,0.3,0.2,0.6,0.3,0.9c0.1,0.2,0.1,0.3,0.2,0.5c0.1,0.4,0.3,0.7,0.4,1.1
	c0,0,0,0,0,0c0.2,0.4,0.3,0.8,0.5,1.2c0.1,0.2,0.1,0.3,0.2,0.5c3.6,8.9,9.6,23.8,7.4,48.5c-0.1,1.7-0.3,3.2-0.4,4.7
	c0,0.2,0,0.3,0,0.5c-0.1,0.7-0.1,1.4-0.2,2c0,0.1,0,0.3,0,0.4c-0.1,0.6-0.1,1.3-0.2,1.9c0,0.1,0,0.3,0,0.4c-0.1,0.6-0.1,1.3-0.2,1.9
	c0,0.1,0,0.2,0,0.3c-0.1,0.6-0.1,1.2-0.2,1.7c0,0.1,0,0.2,0,0.3c-0.1,0.6-0.1,1.1-0.2,1.6c0,0.1,0,0.2,0,0.3c-0.1,0.5-0.1,1-0.2,1.4
	c0,0.1,0,0.3-0.1,0.4c-0.1,0.4-0.1,0.9-0.2,1.3c0,0.1,0,0.3-0.1,0.4c-0.1,0.4-0.1,0.8-0.2,1.2c0,0.1,0,0.3-0.1,0.4
	c-0.1,0.4-0.1,0.8-0.2,1.1c0,0.1,0,0.3-0.1,0.4c-0.1,0.4-0.1,0.7-0.2,1.1c0,0.1,0,0.3-0.1,0.4c-0.1,0.3-0.1,0.7-0.2,1
	c0,0.1,0,0.3-0.1,0.4c-0.1,0.3-0.1,0.6-0.2,0.9c0,0.1,0,0.2-0.1,0.3c-0.1,0.3-0.1,0.6-0.2,0.9c0,0.1,0,0.2-0.1,0.3
	c-0.1,0.3-0.1,0.5-0.2,0.8c0,0.1,0,0.2-0.1,0.3c-0.1,0.3-0.1,0.5-0.2,0.8c0,0.1,0,0.2-0.1,0.3c-0.1,0.2-0.1,0.5-0.2,0.7
	c0,0.1,0,0.2-0.1,0.2c-0.1,0.2-0.1,0.5-0.1,0.7c0,0.1,0,0.2-0.1,0.2c-0.1,0.2-0.1,0.4-0.2,0.6c0,0.1,0,0.1,0,0.2
	c-0.1,0.2-0.1,0.4-0.1,0.6c0,0.1,0,0.1,0,0.2c-0.1,0.2-0.1,0.4-0.1,0.6c0,0,0,0.1,0,0.1c0,0.2-0.1,0.4-0.1,0.5c0,0,0,0.1,0,0.1
	c-0.1,0.2-0.1,0.3-0.1,0.5c0,0,0,0.1,0,0.1c-0.1,0.2-0.1,0.3-0.2,0.5c0,0,0,0,0,0c-0.1,0.2-0.1,0.3-0.2,0.5c0,0,0,0,0,0
	c-0.3,1-0.6,1.7-0.8,2.3l0,0.1c-0.3,0.9-0.5,1.5-0.8,2.4c-0.4,2,0.1,3.3,0.5,4.1c-1.2,1.5-1.6,3-1.8,6.1c-0.2,2.4,0.7,4.2,1.6,5.5
	c-2.3,4-2.8,7.6-1.3,10.6c3.4,7.1,17.1,11.2,44.3,13.3c7.5,0.7,14.3,0.9,20.6,0.9c0,0,0,0,0,0c0,0,0,0,0,0c34.5,0,51.2-7.3,51.2-7.3
	c3.7-1.7,6.3-4.3,7.6-7.5c0.6-1.5,0.9-3.1,0.9-4.8c0-1.2-0.2-2.2-0.5-3.1c-0.5-1.5-1.3-2.7-2-3.6c0.8-1.5,1.1-3.5,1-5.5
	c0,0,0,0,0-0.1c0-0.3,0-0.5-0.1-0.8c0-0.1,0-0.2-0.1-0.3c0-0.2-0.1-0.3-0.1-0.5c0-0.1-0.1-0.2-0.1-0.3c-0.1-0.2-0.1-0.3-0.2-0.5
	c-0.1-0.3-0.2-0.5-0.3-0.8c0-0.1-0.1-0.3-0.2-0.5c0-0.1,0-0.1,0.1-0.1c4.7-2.1,4.3-8,3.9-15.5l-0.1-1.2c-0.1-2.7,8.3-4.1,15.7-5.3
	c0.7-0.1,1.5-0.3,2.3-0.4c0.6-0.1,1.2-0.2,1.8-0.3c0.2,0,0.4-0.1,0.6-0.1c0.5-0.1,1-0.2,1.5-0.3c0.3,0,0.5-0.1,0.8-0.2
	c0.4-0.1,0.9-0.2,1.3-0.3c0.3-0.1,0.6-0.1,0.9-0.2c0.4-0.1,0.8-0.2,1.3-0.3c0.3-0.1,0.6-0.1,0.9-0.2c0.4-0.1,0.8-0.2,1.3-0.3
	c0.3-0.1,0.6-0.1,0.9-0.2c0.4-0.1,0.9-0.2,1.3-0.4c0.3-0.1,0.5-0.1,0.8-0.2c0.7-0.2,1.3-0.4,1.9-0.6c0,0,0.1,0,0.1,0
	C340.9,101.9,341.5,67.2,338.7,53.6z M283,97.8c-1.1-6.5-2.6-20.4-0.9-34.5v-0.1c0-0.1,0.7-6.6,5.1-10.5c3.3-2.9,5-5.2,6.2-7
	c0.5-0.8,1.1-1.5,1.5-1.8l0.1-0.1c1.2-1,3.7-3.2,7.6-3.2c1.6,0,3.7,0.4,6.2,1.5c8.2,4.3,11.6,17,10.7,26.5
	c-1,10.7-2.7,20.6-8.2,21.7c-1.4,0.3-3.4,0.5-5.7,0.9C298.3,92.1,288.8,93.3,283,97.8z"/>
<path class="st0" d="M462.1,28.4c0-7.5-3-14.7-8.3-20.1C448.4,3,441.2,0,433.7,0h-34.3l-59.4,127.1h74.8v18.2
	c0,17-9.7,23.7-9.7,23.7h66.7c0,0-9.7-6.6-9.7-23.7v-17.8c17.3,1.4,21.3,5,21.3,5V103h-21.3V28.4z M414.7,103h-32.7l32.7-70.1V103z"
	/>
<path class="st1" d="M227.1,46c-0.1,0-0.1,0-0.2,0l0,0h-2.7c0,0,0,0,0,0c0,0-0.1,0-0.1,0c-0.2,0-0.4,0-0.6,0.1
	c-0.4,0-0.9,0.1-1.3,0.1l-0.1,0c-0.7,0.1-1.4,0.2-2,0.4c-1,0.3-1.9,0.6-2.9,0.9c-1.1,0.4-2.1,1-3,1.6c-1.5,1.1-2.7,2.5-3.7,4
	c-1.2,1.8-2.2,3.7-2.7,5.7c-0.2,0.8-0.4,1.7-0.4,2.5c0,0.9,0,1.8,0.1,2.6c0,0.7,0.1,1.4,0.2,2.1c0.1,0.6,0.2,1.3,0.3,1.9
	c0,0.3,0.1,0.7,0.1,1c0,0.2,0.1,0.4,0.1,0.6c0,0.4,0.1,0.7,0.2,1.1c0.1,0.5,0.2,1,0.3,1.6c0.1,0.3,0.1,0.7,0.2,1
	c0,0.1,0,0.3,0.1,0.4c0,0.3,0.1,0.6,0.2,0.9c0.1,0.2,0,0.3-0.2,0.5c-0.5,0.5-1,1-1.5,1.5c-0.5,0.5-0.7,1.1-0.5,1.8
	c0,0.1,0,0.1,0,0.2c0.2,0.5,0.3,1,0.5,1.5l0,0.1c0.3,0.6,0.6,1.3,1,1.8c0.5,0.7,1.2,1.2,1.8,1.8c0.3,0.3,0.7,0.4,1.1,0.6
	c0.3,0.1,0.7,0,1-0.1c0,0,0.1,0,0.1,0c0.5-0.2,0.9-0.3,1.4-0.5c0.5-0.2,1-0.4,1.5-0.5c0.3-0.1,0.4-0.1,0.6,0.2
	c0.5,0.7,0.7,1.5,0.8,2.3c0.1,0.6,0.1,1.3,0.2,1.9c0,0.3,0.1,0.7,0.1,1c0.1,1.3,0.3,2.7,0.4,4c0,0.1,0,0.3,0.1,0.3
	c0.3,0.2,0.7,0.3,1.1,0.3c0-1.1,0.3-2.2,0.5-3.2c0-0.1,0-0.1,0.1-0.2c0.1,0.3,0.1,0.7,0.2,1l0,0c0,0.2,0.1,0.5,0.1,0.7
	c0.1,0.6,0.2,1.1,0.3,1.7c0,0.2,0.1,0.2,0.2,0.2c0.1,0,0.3,0,0.4,0c0.1,0,0.2,0,0.3,0c0,0,0.1,0,0.1,0c0.1-0.4,0.1-0.8,0.2-1.2
	c0.1-0.8,0.2-1.7,0.3-2.5c0,0,0.1,0,0.1,0c0.2,1.3,0.3,2.6,0.5,3.9h1.1c0-1.3,0.2-2.6,0.5-3.9c0.2,1,0.4,1.9,0.5,2.9
	c0,0.1,0,0.3,0.1,0.4c0,0.2,0,0.4,0.1,0.5c0,0.1,0.1,0.2,0.2,0.2c0.3,0,0.5,0,0.7,0c0.1,0,0.2,0,0.2,0c0.1-0.7,0.2-1.4,0.2-2.1
	c0.1-0.7,0.2-1.3,0.2-2c0,0,0,0,0,0c0,0,0,0,0.1,0c0.1,0.7,0.2,1.4,0.3,2.2c0.1,0.6,0.2,1.2,0.3,1.8h1.4c0.1-1.3,0.3-2.7,0.4-4h0.1
	c0.2,1.3,0.4,2.6,0.6,3.9h1.5c-0.2-1,0-1.9,0.2-2.8c0.1-0.3,0.1-0.6,0.2-1c0,0.1,0.1,0.2,0.1,0.3c0.2,1,0.3,2,0.5,3l0,0.2
	c0,0.2,0.1,0.2,0.3,0.2c0.2,0,0.4-0.1,0.6-0.1c0.1,0,0.1,0,0.2,0c0.2-1.2,0.4-2.4,0.6-3.6c0,0,0.1,0,0.1,0c0.1,1.1,0.3,2.3,0.4,3.4
	c0.1,0,0.2,0,0.3-0.1c0.2,0,0.4-0.1,0.7-0.1c0.1,0,0.2-0.1,0.2-0.2c0-0.1,0-0.2,0-0.3c0-0.2,0.1-0.4,0.1-0.6c0.1-0.5,0.1-1,0.2-1.5
	c0.1-0.9,0.2-1.8,0.3-2.8c0.1-0.9,0.3-1.9,0.4-2.8c0.1-0.5,0.3-1,0.4-1.5c0.1-0.4,0.2-0.4,0.6-0.3c0,0,0,0,0,0c0.1,0,0.1,0,0.2,0
	c0.2,0.1,0.5,0.2,0.7,0.3c0.6,0.2,1.2,0.4,1.7,0.7c0.6,0.3,1.2,0.2,1.8-0.2c0.1-0.1,0.2-0.1,0.2-0.2c0.3-0.2,0.6-0.4,0.8-0.7
	c0.1-0.1,0.1-0.1,0.2-0.2c0.5-0.5,0.9-0.9,1.3-1.5c0.6-0.9,1.1-2,1.4-3.1c0.1-0.5,0.1-1.1-0.2-1.5c-0.2-0.2-0.3-0.4-0.5-0.7
	c-0.3-0.4-0.7-0.8-1-1.2c-0.1-0.1-0.2-0.3-0.2-0.4c0-0.3,0.1-0.7,0.1-1c0-0.2,0.1-0.5,0.1-0.7c0.1-0.7,0.2-1.5,0.3-2.2
	c0-0.2,0.1-0.5,0.1-0.7c0-0.2,0-0.4,0.1-0.7c0.1-0.7,0.2-1.4,0.2-2.1c0.1-0.7,0.1-1.4,0.2-2.2c0.1-0.7,0.1-1.4,0.2-2.1
	c0.1-1.3-0.1-2.5-0.5-3.8c-0.4-1.4-0.9-2.7-1.6-3.9c-0.9-1.6-2-3-3.3-4.3c-0.8-0.8-1.7-1.6-2.7-2.3c-1.3-0.9-2.7-1.6-4.2-2
	c-0.8-0.2-1.7-0.3-2.5-0.4c-0.5,0-0.9-0.1-1.4-0.1c-0.2,0-0.5,0-0.7,0C227.3,46.1,227.2,46,227.1,46z M210.5,71.7c0-0.1,0-0.2,0-0.3
	l0,0c0.1-0.8,0.3-1.6,0.8-2.2c0.3-0.4,0.8-0.5,1.2-0.5c0.9,0,1.8,0.1,2.7,0.1c0.7,0.1,1.4,0.1,2.2,0.2c1.1,0.2,2.1,0.3,3.2,0.5
	c0.7,0.1,1.4,0.3,2.1,0.5c0.1,0,0.3,0.1,0.4,0.1c0.2,0,0.3,0.1,0.5,0.2c0,0,0.1,0.1,0.1,0.1c0.3,0.2,0.4,0.6,0.3,1
	c-0.2,0.8-0.6,1.5-1.2,2.1c-1.1,1.3-2.5,2.3-4,3c-0.7,0.3-1.4,0.6-2.1,0.6c-0.7,0-1.4-0.1-2.1-0.3c-0.6-0.2-1.2-0.5-1.7-0.8
	c-0.7-0.4-1.1-1.1-1.5-1.7c-0.4-0.7-0.6-1.3-0.8-2.1C210.5,72.1,210.5,71.9,210.5,71.7z M238.1,68.6
	C238.1,68.7,238.1,68.7,238.1,68.6L238.1,68.6c0.1,0,0.2,0,0.4,0c0.3,0,0.5,0,0.8,0c1,0,1.6,0.6,1.9,1.4c0.2,0.5,0.3,1,0.3,1.5
	c-0.1,1-0.5,1.9-1,2.8c-0.3,0.6-0.7,1.1-1.2,1.5c-0.5,0.4-1,0.7-1.6,0.9c-0.8,0.3-1.5,0.4-2.3,0.4c-0.7,0-1.4-0.2-2.1-0.5
	c-1.4-0.7-2.7-1.6-3.8-2.7c-0.6-0.6-1.2-1.3-1.5-2.1c-0.1-0.2-0.2-0.5-0.2-0.7c0-0.6,0.1-0.7,0.6-0.9c0.6-0.3,1.3-0.5,1.9-0.6
	c0.7-0.2,1.5-0.3,2.2-0.4c0.8-0.1,1.7-0.3,2.5-0.4c0.7-0.1,1.4-0.2,2.1-0.2C237.5,68.7,237.8,68.7,238.1,68.6
	C238.1,68.6,238.1,68.6,238.1,68.6z M226,80.4C226,80.4,226,80.4,226,80.4L226,80.4C226,80.4,226,80.4,226,80.4z M226,80.5
	c0,0,0-0.1,0-0.1c-0.2,0.3-0.3,0.6-0.3,0.9c-0.1,0.7-0.2,1.4-0.2,2c0,0.4-0.5,0.9-0.9,1c-0.1,0-0.2,0-0.4-0.1
	c-0.6-0.3-1.1-0.7-1.5-1.2c-0.3-0.4-0.2-0.9-0.1-1.4c0.3-1.2,0.8-2.3,1.4-3.4c0,0,0,0,0-0.1c0.2-0.4,0.5-0.8,0.7-1.2
	c0.2-0.3,0.3-0.3,0.7-0.1c0.5,0.3,0.5,0.3,0.8,0c0,0,0.1-0.1,0.2-0.1c0.3-0.3,0.5-0.3,0.8,0.1c0.3,0.6,0.7,1.1,0.9,1.7
	c0.3,0.8,0.6,1.6,0.8,2.4c0.1,0.4,0.2,0.8,0.2,1.2c0,0.2,0.1,0.4,0.1,0.6c0.1,0.6-0.2,1-0.6,1.2c-0.3,0.2-0.7,0.3-1,0.4
	c-0.4,0.1-0.6-0.2-0.8-0.4l0,0c-0.3-0.4-0.4-0.9-0.5-1.4c0,0,0,0,0,0c0-0.3-0.1-0.7-0.1-1c0-0.2-0.1-0.5-0.1-0.7
	C226.1,80.6,226,80.6,226,80.5z M244.7,122C244.7,122,244.8,122,244.7,122L244.7,122l1,0c0.1,0,0.2,0,0.2-0.1c0.1,0,0.2,0,0.3-0.1
	c0.3,0,0.5-0.1,0.8-0.2c0.2-0.1,0.5-0.1,0.5-0.4c0-0.3,0-0.7,0-1c-0.1-0.7,0.2-1.4,1-1.7c0.1,0,0.3-0.1,0.4-0.1
	c0.1,0,0.3-0.1,0.4-0.1c0.4-0.1,0.9-0.2,1.3-0.4c0.2-0.1,0.3-0.2,0.3-0.4c0-0.1,0-0.1,0-0.2c0-0.2-0.1-0.5-0.2-0.7
	c-0.5-1.1-1.3-1.8-2.6-1.7c-0.6,0-1.1,0.1-1.7,0.1c-0.3,0-0.7,0-1,0c-0.7,0-1.4,0-2-0.2c-1.2-0.5-2.4-0.9-3.5-1.5
	c-1-0.5-2-0.9-3-1.4c-0.3-0.1-0.6-0.3-0.8-0.4c-0.5-0.2-1-0.5-1.5-0.7c-0.4-0.2-0.7-0.4-1.1-0.6c-1-0.5-2.1-1-3.1-1.6
	c-0.2-0.1-0.4-0.2-0.6-0.3c-0.1,0-0.2-0.1-0.3-0.1c0.2-0.1,0.4-0.2,0.6-0.3c0.5-0.2,1-0.5,1.5-0.7c0.2-0.1,0.4-0.2,0.5-0.3
	c1-0.5,2-1,3.1-1.4c1-0.5,2-0.9,3.1-1.3c0.1-0.1,0.3-0.1,0.4-0.2c0.2-0.1,0.4-0.2,0.6-0.3c1.1-0.5,2.3-1,3.4-1.4
	c0.7-0.3,1.4-0.6,2.2-0.8c0.5-0.2,1-0.4,1.4-0.5c1.1-0.4,2.2-0.5,3.3-0.3c0.6,0.1,1.1,0.2,1.7,0.2c0.8,0,1.6-0.2,2.2-0.7
	c0.6-0.5,0.8-1.1,0.5-1.8c-0.1-0.2-0.2-0.3-0.3-0.5c-0.1-0.1-0.1-0.2-0.2-0.3c-0.5-1-0.6-2,0-3c0.7-1.1,0.2-2.3-0.6-2.9
	c-0.5-0.3-1-0.4-1.5-0.4c-0.9,0-1.8,0.2-2.6,0.4c-0.9,0.3-1.4,0.8-1.7,1.7c-0.1,0.2-0.1,0.3-0.1,0.5c-0.1,0.3-0.2,0.7-0.3,1
	c-0.1,0.4-0.3,0.8-0.7,1.2c-0.7,0.7-1.6,1.2-2.5,1.7c-0.7,0.3-1.3,0.6-2,0.9c-0.3,0.1-0.6,0.3-0.9,0.4c-0.5,0.2-0.9,0.4-1.4,0.6
	c-0.9,0.4-1.8,0.8-2.7,1.2c-0.3,0.1-0.6,0.3-0.9,0.4c-0.8,0.4-1.6,0.8-2.5,1.1c-0.4,0.2-0.9,0.4-1.3,0.6c-0.6,0.3-1.1,0.5-1.7,0.8
	c-0.7,0.3-1.4,0.6-2.1,1c-0.5,0.3-1.1,0.6-1.6,0.8c-0.4,0.2-0.7,0.4-1.1,0.6c-0.1,0-0.2,0.1-0.3,0c-0.3-0.1-0.6-0.3-0.9-0.4
	c-0.1,0-0.1,0-0.2-0.1c-0.2-0.1-0.4-0.2-0.7-0.3c-0.7-0.3-1.3-0.6-1.9-0.9c-0.1-0.1-0.3-0.1-0.4-0.2c-0.9-0.4-1.8-0.9-2.7-1.3
	c-0.9-0.5-1.8-1-2.8-1.5c-0.1-0.1-0.2-0.1-0.3-0.2c-0.2-0.1-0.4-0.2-0.7-0.4c-0.9-0.5-1.7-0.9-2.6-1.4c-1-0.6-2-1.2-3-1.8
	c-0.3-0.2-0.7-0.4-1-0.6c-0.1,0-0.2-0.1-0.2-0.2c-0.2-0.3-0.3-0.6-0.5-1c-0.3-0.5-0.5-1-0.8-1.5c0-0.1-0.1-0.1-0.1-0.2
	c-0.2-0.4-0.4-0.7-0.8-0.9c-0.7-0.4-1.4-0.5-2.1-0.7c-0.9-0.1-1.9-0.1-2.8,0.2l0,0c-0.8,0.2-1.5,0.5-1.9,1.3v0.8c0,0,0,0,0,0
	c0,0,0,0,0,0c0.1,0.3,0.2,0.5,0.3,0.8c0.1,0.4,0.3,0.9,0.4,1.3c0.2,0.6,0.3,1.1,0.3,1.7c-0.1,0.6-0.1,1.2,0.1,1.8
	c0.3,0.8,0.7,1.5,1.7,1.5c0,0,0.1,0,0.1,0c0.1,0,0.3,0,0.4,0c0.4-0.1,0.7-0.1,1.1-0.2c0.6-0.1,1.3-0.2,1.9-0.3l0,0
	c0.5-0.1,0.9-0.1,1.4,0c0.8,0.2,1.5,0.4,2.2,0.7c0.9,0.4,1.9,0.8,2.8,1.2c0.6,0.2,1.1,0.5,1.6,0.8c0.3,0.2,0.6,0.3,1,0.5
	c0.6,0.3,1.2,0.5,1.7,0.8c0.7,0.3,1.4,0.6,2.1,1c0.8,0.4,1.7,0.8,2.5,1.2c0.2,0.1,0.5,0.2,0.7,0.3c0,0,0.1,0,0.1,0.1c0,0,0,0,0.1,0
	c-0.3,0.1-0.5,0.3-0.8,0.4c-0.6,0.3-1.2,0.6-1.8,0.9c-0.1,0-0.2,0.1-0.3,0.1c-0.9,0.5-1.8,0.9-2.7,1.3c-1.5,0.7-2.9,1.3-4.4,2
	c-0.5,0.2-1.1,0.4-1.7,0.5c-0.5,0.1-0.9,0.1-1.4,0.1c-0.2,0-0.3,0-0.5,0c-0.3,0-0.6,0-0.9,0c-0.3,0-0.7,0-1,0
	c-0.6,0-1.3,0.1-1.9,0.4c-0.4,0.2-0.7,0.5-0.7,0.9c0,0.6,0,1.2,0,1.8c0,0,0,0.1,0,0.1c0,0.1,0.1,0.2,0.2,0.3
	c0.1,0.1,0.3,0.1,0.4,0.2c0.2,0.1,0.3,0.1,0.5,0.2c0.3,0.1,0.6,0.2,0.9,0.3c0.8,0.4,1,1.1,0.5,1.8c-0.1,0.1-0.2,0.2-0.2,0.3
	c0,0.1-0.1,0.1-0.1,0.2c0,0,0.1,0,0.1,0.1c0.1,0,0.1,0.1,0.2,0.1c0.1,0.1,0.2,0.1,0.3,0.2c0.5,0.3,1,0.5,1.6,0.8
	c0.3,0.1,0.6,0.1,0.9,0c0.6-0.3,1.1-0.7,1.4-1.2c0.2-0.4,0.5-0.7,0.7-1.1c0.2-0.3,0.4-0.6,0.6-0.9c0-0.1,0.1-0.1,0.1-0.2
	c0.3-0.4,0.6-0.8,0.9-1.2c0.6-0.7,1.5-1,2.3-1.4c0.4-0.2,0.9-0.4,1.3-0.5c0.6-0.2,1.2-0.5,1.8-0.8c1.1-0.5,2.1-1,3.2-1.5
	c0.4-0.2,0.9-0.4,1.3-0.7c0.2-0.1,0.5-0.2,0.7-0.4c0.8-0.4,1.6-0.8,2.4-1.2c0.2-0.1,0.3,0,0.5,0c0.4,0.2,0.9,0.4,1.3,0.6
	c0.2,0.1,0.4,0.2,0.5,0.3c1.1,0.5,2.1,1,3.2,1.5c0.8,0.4,1.6,0.8,2.5,1.2c0.3,0.2,0.7,0.3,1,0.5c0.9,0.4,1.8,0.9,2.7,1.3
	c0.6,0.3,1.2,0.6,1.8,0.9c0.3,0.1,0.5,0.3,0.8,0.4c0.9,0.5,1.7,1.1,2.2,2l0,0.1c0.4,0.6,0.7,1.2,1,1.8c0.3,0.6,0.8,1,1.6,1
	C244.6,121.9,244.7,122,244.7,122z"/>
</svg>
